<svg
  xmlns="http://www.w3.org/2000/svg"
  width="20px"
  height="20px"
  viewBox="0 0 24 24"
  fill="none"
  stroke="currentColor"
  stroke-width="1.5"
  stroke-linecap="round"
  stroke-linejoin="round"
>
  <g transform="translate(1.68 1.68) scale(0.86)">
    <path d="M15 21v-3.7c0-1-.3-1.7-.9-2.2 3-.3 5.9-1.5 5.9-6.1 0-1.3-.5-2.4-1.2-3.3.1-.3.5-1.6-.1-3.2 0 0-1-.3-3.4 1.3-1-.3-2.1-.4-3.3-.4s-2.3.1-3.3.4C6.3 2.2 5.3 2.5 5.3 2.5c-.6 1.6-.2 2.9-.1 3.2C4.5 6.6 4 7.7 4 9c0 4.6 2.9 5.8 5.9 6.1-.4.3-.7.9-.8 1.6" />
    <path d="M9 20.5c-1.5.4-2.8-.1-3.5-1.4-.5-.8-1.1-1.2-1.8-1.3" />
  </g>
</svg>
